<svg xmlns="http://www.w3.org/2000/svg" display="none">

  <symbol id="budget" viewBox="0 0 95 84">
    <g>
      <path
        d="M95,33.6385V7.2249a6.9527,6.9527,0,0,0-2.1352-5.0857A6.9278,6.9278,0,0,0,87.7884,0H7.2116A6.9275,6.9275,0,0,0,2.1353,2.1392,6.9524,6.9524,0,0,0,0,7.2249V67.9128a6.9528,6.9528,0,0,0,2.1353,5.0858,6.9274,6.9274,0,0,0,5.0763,2.1391H35.4231V69.4543H7.2116a1.47,1.47,0,0,1-1.0579-.4816,1.4747,1.4747,0,0,1-.4807-1.06V33.6385ZM5.673,7.2249a1.4749,1.4749,0,0,1,.4807-1.06,1.47,1.47,0,0,1,1.0579-.4816H87.7884a1.47,1.47,0,0,1,1.0579.4816,1.4745,1.4745,0,0,1,.4807,1.06v12.33H5.673Z"
        fill="#fff" />
      <polygon points="61.419 84 41.919 64.445 45.992 60.361 61.419 75.831 91.004 46.162 95 50.323 61.419 84"
        fill="#fff" />
    </g>
  </symbol>

  <symbol id="assortiment" viewBox="0 0 97 84">
    <path
      d="M5.4225,39.1114v0ZM56.1836,78.59a6.0752,6.0752,0,0,0,4.5036-1.88,6.23,6.23,0,0,0,1.8474-4.53,6.2777,6.2777,0,0,0-6.4107-6.3367,6.2136,6.2136,0,0,0-4.4806,1.8283,6.3617,6.3617,0,0,0,0,9.0386A6.1959,6.1959,0,0,0,56.1836,78.59Zm29.043-45.21A6.0752,6.0752,0,0,0,89.73,31.5a6.23,6.23,0,0,0,1.8473-4.53,6.2775,6.2775,0,0,0-6.4107-6.3367,6.2132,6.2132,0,0,0-4.48,1.8283,6.3617,6.3617,0,0,0,0,9.0386A6.1956,6.1956,0,0,0,85.2266,33.38Zm-66.6244-5.319h24.54v-5.41h-24.54Zm0,20.8166h24.54v-5.41h-24.54ZM6.8931,71.5285A6.6348,6.6348,0,0,1,2.041,69.4921,6.6056,6.6056,0,0,1,0,64.6506V6.8779A6.6056,6.6056,0,0,1,2.041,2.0364,6.6348,6.6348,0,0,1,6.8931,0H85.2725a6.6349,6.6349,0,0,1,4.8521,2.0364,6.606,6.606,0,0,1,2.041,4.8415H86.743a1.4016,1.4016,0,0,0-.4595-1.009,1.4072,1.4072,0,0,0-1.011-.4585H6.8931a1.4072,1.4072,0,0,0-1.011.4585,1.4014,1.4014,0,0,0-.46,1.009V64.6506a1.4014,1.4014,0,0,0,.46,1.009,1.4072,1.4072,0,0,0,1.011.4585H36.5244v5.41ZM56.13,84a11.7971,11.7971,0,0,1-9.22-19.1522,11.81,11.81,0,0,1,6.5254-4.1219v-13.82h29.043V38.4971a11.81,11.81,0,0,1-6.5254-4.1221A11.3184,11.3184,0,0,1,73.38,27.0067,11.8447,11.8447,0,0,1,93.5672,18.66,11.371,11.371,0,0,1,97,27.0067a11.3184,11.3184,0,0,1-2.5735,7.3683,11.81,11.81,0,0,1-6.5255,4.1221V52.3166H58.8582v8.4093a11.81,11.81,0,0,1,6.5254,4.1219A11.7829,11.7829,0,0,1,56.13,84Z"
      fill="#fff" />
  </symbol>

  <symbol id="exclusive" viewBox="0 0 86 84">
    <path
      d="M6.5284,84A6.2671,6.2671,0,0,1,1.933,82.0609,6.3062,6.3062,0,0,1,0,77.451v-55.01a6.3062,6.3062,0,0,1,1.933-4.61,6.267,6.267,0,0,1,4.5954-1.939h20.63V6.5489a6.3061,6.3061,0,0,1,1.9329-4.61A6.2674,6.2674,0,0,1,33.6864,0H52.3136a6.2674,6.2674,0,0,1,4.5955,1.9391,6.3061,6.3061,0,0,1,1.9329,4.61v9.3429h20.63A6.6113,6.6113,0,0,1,86,22.4407v55.01A6.6113,6.6113,0,0,1,79.4716,84Zm0-5.1517H79.4716a1.5,1.5,0,0,0,1.3928-1.3973v-55.01a1.5,1.5,0,0,0-1.3928-1.3972H6.5284a1.3293,1.3293,0,0,0-.9576.4366,1.337,1.337,0,0,0-.4352.9606v55.01a1.3371,1.3371,0,0,0,.4352.9607A1.33,1.33,0,0,0,6.5284,78.8483ZM32.2935,15.8918h21.413V6.5489a1.3373,1.3373,0,0,0-.4352-.9606,1.33,1.33,0,0,0-.9577-.4367H33.6864a1.33,1.33,0,0,0-.9577.4367,1.3373,1.3373,0,0,0-.4352.9606ZM5.1356,78.8483v0ZM40.4322,52.5217V66.1434h5.1356V52.5217h13.579V47.37H45.5678V33.7483H40.4322V47.37H26.8532v5.1517Z"
      fill="#fff" />
  </symbol>

  <symbol id="defence" viewBox="0 0 67 84">
    <path
      d="M29.5488,54.8174h7.9024V43.7311H48.6179V35.8855H37.4512V24.7992H29.5488V35.8855H18.3821v7.8456H29.5488ZM33.5,84Q18.94,80.0346,9.47,66.7949A49.26,49.26,0,0,1,0,37.4716V12.4507L33.5,0,67,12.4507V37.4716a49.26,49.26,0,0,1-9.47,29.3233Q48.06,80.0345,33.5,84Zm0-5.2532A39.1089,39.1089,0,0,0,53.9651,63.2005a44.155,44.155,0,0,0,7.967-25.7289V15.9556L33.5,5.3468,5.0679,15.9556v21.516a44.155,44.155,0,0,0,7.967,25.7289A39.1089,39.1089,0,0,0,33.5,78.7468Z"
      fill="#fff" />
  </symbol>

  <symbol id="support" viewBox="0 0 84 84">
    <path
      d="M35.28,84V74.9694H48.72v2.31a2.1,2.1,0,0,0,2.1,2.1h8.82a10.9329,10.9329,0,0,0,10.92-10.92v-27.09a2.3128,2.3128,0,0,1,2.31-2.31h4.0047a2.1,2.1,0,0,0,2.0784-2.3984,37.3292,37.3292,0,0,0-73.9055,0A2.1,2.1,0,0,0,7.126,39.0592H11.13a2.3128,2.3128,0,0,1,2.31,2.31V64.05a2.312,2.312,0,0,1-2.31,2.3092H6.72C3.0146,66.3592,0,63.6275,0,60.27V42a42,42,0,0,1,84,0V60.27c0,3.3571-3.0146,6.0888-6.72,6.0888a2.1,2.1,0,0,0-2.1,2.1A15.5579,15.5579,0,0,1,59.64,84Z"
      fill="#fff" />
  </symbol>

  <symbol id="partnership" viewBox="0 0 93 84">
    <path
      d="M47.457,78.9747a4.4861,4.4861,0,0,1-1.6345-.3407,3.7082,3.7082,0,0,1-1.396-.9114L8.2825,41.4889a11.7682,11.7682,0,0,1-2.4133-3.4126,9.1532,9.1532,0,0,1-.847-3.8613,10.2268,10.2268,0,0,1,.847-4.0416,11.2048,11.2048,0,0,1,2.4133-3.5562L26.7971,8.0916a10.7235,10.7235,0,0,1,3.4263-2.3509,10.0762,10.0762,0,0,1,7.7917,0,10.2432,10.2432,0,0,1,3.3894,2.3509l3.0987,3.1005-8.7509,8.8242a13.7808,13.7808,0,0,0-2.2686,3.2579,8.9072,8.9072,0,0,0,1.8388,10.4979,8.99,8.99,0,0,0,6.4907,2.7426,10.4959,10.4959,0,0,0,4.06-.7027,9.7144,9.7144,0,0,0,3.0637-2.065l8.2408-8.2712L76.91,45.22a4.0873,4.0873,0,0,1,.945,1.4423,4.544,4.544,0,0,1,.3064,1.6307,3.5334,3.5334,0,0,1-1.0471,2.6381,3.5906,3.5906,0,0,1-2.619,1.0264,3.72,3.72,0,0,1-1.6712-.3961,4.982,4.982,0,0,1-1.3281-.9241L56.778,35.91l-3.541,3.5432,14.65,14.6161a4.4957,4.4957,0,0,1,.9448,1.4949,4.6415,4.6415,0,0,1,.3065,1.6482,3.7668,3.7668,0,0,1-3.703,3.7052,4.1343,4.1343,0,0,1-1.6344-.3408,3.8121,3.8121,0,0,1-1.328-.9114L47.244,44.4274l-3.541,3.5434L58.8637,63.0979a4.89,4.89,0,0,1,.8895,1.4211,4.3621,4.3621,0,0,1,.3617,1.7219,3.7664,3.7664,0,0,1-3.7028,3.7052,4.1082,4.1082,0,0,1-1.5792-.3066A4.2386,4.2386,0,0,1,53.45,68.694L38.2209,53.4561,34.68,56.9993,49.9086,72.2372a3.9923,3.9923,0,0,1,.9448,1.4948,4.7169,4.7169,0,0,1,.3065,1.58,3.5274,3.5274,0,0,1-1.0343,2.67A3.6956,3.6956,0,0,1,47.457,78.9747ZM47.45,84a8.247,8.247,0,0,0,6.0253-2.5851,9.2268,9.2268,0,0,0,2.7069-6.4568,9.4952,9.4952,0,0,0,6.2865-2.6187,9.1708,9.1708,0,0,0,2.7367-6.3967,9.41,9.41,0,0,0,6.3589-2.73A9.2444,9.2444,0,0,0,74.16,56.9142a10,10,0,0,0,6.4311-2.5978,7.9574,7.9574,0,0,0,2.5921-6.1326,9.4324,9.4324,0,0,0-.7015-3.5147,9.2827,9.2827,0,0,0-1.9628-3.0609L57.1781,18.2531,45.8992,29.5389a6.9937,6.9937,0,0,1-1.9181,1.3627,5.08,5.08,0,0,1-2.2361.52A4.1169,4.1169,0,0,1,38,25.4291a7.358,7.358,0,0,1,1.294-1.8014L54.82,8.0916a10.653,10.653,0,0,1,3.4476-2.3509,10.1283,10.1283,0,0,1,3.9328-.7836,9.6162,9.6162,0,0,1,3.8376.7836,10.9014,10.9014,0,0,1,3.383,2.3351l15.4224,15.441A10.2237,10.2237,0,0,1,87.2144,27.06a12.1816,12.1816,0,0,1,.7619,4.28,9.0518,9.0518,0,0,1-.7235,3.867,15.84,15.84,0,0,1-1.95,3.4113l3.6944,3.6539a18.2374,18.2374,0,0,0,2.83-5.0594,17.5475,17.5475,0,0,0,1.17-6.0389A15.3807,15.3807,0,0,0,91.8323,25.02a15.7638,15.7638,0,0,0-3.4476-5.1574L73.08,4.5484A15.1509,15.1509,0,0,0,67.9735,1.12,15.63,15.63,0,0,0,62.1127,0a15.3834,15.3834,0,0,0-5.8283,1.12,15.2439,15.2439,0,0,0-5.0735,3.4283L48.1124,7.6489,45.0137,4.5484A15.21,15.21,0,0,0,39.9291,1.12a15.8081,15.8081,0,0,0-11.6891,0,15.1828,15.1828,0,0,0-5.0947,3.4283L4.7414,22.9633a16.0132,16.0132,0,0,0-3.5241,5.2631A15.6081,15.6081,0,0,0,0,34.2185a14.2687,14.2687,0,0,0,1.2173,5.8054A16.636,16.636,0,0,0,4.7414,45.1l36.144,36.1655a8.6621,8.6621,0,0,0,3.0339,2.0655A9.4617,9.4617,0,0,0,47.45,84Z"
      fill="#fff" />
  </symbol>

  <symbol id="loyality" viewBox="0 0 84 84">
    <path
      d="M19.2705,58.7525,34.3412,43.7293l9.8823,9.8824L63.9028,34.0084V44.8031h5.6063v-20.43h-20.43V29.98H59.874L44.2235,45.63l-9.8823-9.8824-18.9761,19.1ZM7.1268,84A6.8526,6.8526,0,0,1,2.11,81.89,6.8526,6.8526,0,0,1,0,76.8732V7.1268A6.8526,6.8526,0,0,1,2.11,2.11,6.8526,6.8526,0,0,1,7.1268,0H76.8732A6.8526,6.8526,0,0,1,81.89,2.11,6.8526,6.8526,0,0,1,84,7.1268V76.8732A7.2058,7.2058,0,0,1,76.8732,84Zm0-5.6063H76.8732a1.6349,1.6349,0,0,0,1.52-1.52V7.1268a1.4531,1.4531,0,0,0-.4751-1.0454,1.4531,1.4531,0,0,0-1.0454-.4751H7.1268a1.4531,1.4531,0,0,0-1.0454.4751,1.4531,1.4531,0,0,0-.4751,1.0454V76.8732a1.4531,1.4531,0,0,0,.4751,1.0454A1.4531,1.4531,0,0,0,7.1268,78.3937Z"
      fill="#fff" />
  </symbol>

  <symbol id="warehouse" viewBox="0 0 94 84">
    <path
      d="M5.6133,78.381H21.5972V38.7618H72.4028V78.381H88.3867v-55.81L47,5.9714l-41.3867,16.6ZM0,84V18.81L47,0,94,18.81V84H66.79V44.3808H27.2105V84Zm34.4413,0V77.0476h6.9454V84Zm9.086-14.8572V62.19h6.9454v6.9524ZM52.6133,84V77.0476h6.9454V84ZM21.5972,38.7618h0Z"
      fill="#fff" />
  </symbol>
</svg>