<svg xmlns="http://www.w3.org/2000/svg" display="none">

  <symbol id="phone-list" viewBox="0 0 60 60">
    <g>
      <path d="M54,0H6A5.9416,5.9416,0,0,0,0,5.883V54A5.9416,5.9416,0,0,0,5.883,60H54a5.9416,5.9416,0,0,0,6-5.8826V6A5.9416,5.9416,0,0,0,54.117,0H54Z" fill="#4f007d"/>
      <g>
        <path d="M47.58,40.4841c-1.08-.6477-6.0455-3.4545-6.9091-3.8863-1.08-.4319-1.5114-.8637-2.375.4318-.8636,1.0795-2.6224,3.1928-3.2631,3.9511-.6477.8637-1.271.7989-2.5667.1512a26.078,26.078,0,0,1-8.2045-5.83A29.4372,29.4372,0,0,1,19.08,27.7455c-1.03-1.6345,1.7273-3.4546,2.375-4.1023s1.9819-1.5721,1.08-3.4546c-.1388-.416-.9012-2.7034-1.6578-4.8579-.421-1.2-.84-2.3584-1.1493-3.1307-.6114-1.9432-1.2954-1.9432-1.9431-1.9432,0,0-.8034,0-1.7556.0749a7.2154,7.2154,0,0,0-5.6352,3.5928A11.8717,11.8717,0,0,0,8.5,19.5413a19.633,19.633,0,0,0,3.4545,11.2273c.6478.8637,6.4773,11.8751,16.841,17.0569a68.81,68.81,0,0,0,8.4109,3.6514,11.5066,11.5066,0,0,0,6.049-.3074,13.2661,13.2661,0,0,0,3.3409-1.778,11.829,11.829,0,0,0,2.0989-2.6829C49.5231,45.0547,50.3805,42.1555,47.58,40.4841Z" fill="#fff"/>
        <g>
          <circle cx="32.7346" cy="11.4914" r="2.2346" fill="#fff"/>
          <rect x="36.0866" y="9.6292" width="14.4134" height="3.7244" rx="1.8622" fill="#fff"/>
          <circle cx="32.7346" cy="18.2326" r="2.2346" fill="#fff"/>
          <rect x="36.0866" y="16.3704" width="14.4134" height="3.7244" rx="1.8622" fill="#fff"/>
          <circle cx="32.7346" cy="24.9737" r="2.2346" fill="#fff"/>
          <rect x="36.0866" y="23.1115" width="14.4134" height="3.7244" rx="1.8622" fill="#fff"/>
        </g>
      </g>
    </g>

  
  <symbol id="phone" viewBox="0 0 50 50">
    <g>
      <path d="M45,0H5A4.9515,4.9515,0,0,0,0,4.9025V45a4.9515,4.9515,0,0,0,4.9023,5H45a4.9515,4.9515,0,0,0,5-4.9022V5a4.9515,4.9515,0,0,0-4.9023-5H45Z" fill="#4f007d"/>
      <path d="M40.4833,32.9034c-.9-.54-5.0379-2.8788-5.7576-3.2386-.9-.36-1.26-.72-1.9792.36-.72.9-2.1854,2.6608-2.7192,3.2927-.54.72-1.0592.6657-2.139.1259a21.7317,21.7317,0,0,1-6.8371-4.858,24.53,24.53,0,0,1-4.3182-6.2973c-.8582-1.362,1.4394-2.8788,1.9792-3.4186s1.6515-1.31.9-2.8788c-.1157-.3467-.751-2.2528-1.3814-4.0483-.3509-1-.7-1.9653-.9578-2.6089C16.7631,7.714,16.1931,7.714,15.6533,7.714c0,0-.6695,0-1.463.0624a6.0128,6.0128,0,0,0-4.696,2.994,9.8934,9.8934,0,0,0-1.5774,4.6807,16.36,16.36,0,0,0,2.8788,9.3561c.54.72,5.3977,9.8958,14.0341,14.214a57.3342,57.3342,0,0,0,7.0092,3.0429,9.5887,9.5887,0,0,0,5.0407-.2562,11.0566,11.0566,0,0,0,2.7842-1.4817,9.8572,9.8572,0,0,0,1.749-2.2357C42.1026,36.7123,42.8171,34.2962,40.4833,32.9034Z" fill="#fff"/>
    </g>
  </symbol>

  <symbol id="wa" viewBox="0 0 50 50">
    <g>
      <path d="M45,0H5A4.9515,4.9515,0,0,0,0,4.9025V45a4.9515,4.9515,0,0,0,4.9023,5H45a4.9515,4.9515,0,0,0,5-4.9022V5a4.9515,4.9515,0,0,0-4.9023-5H45Z" fill="#4f007d"/>
      <g>
        <path d="M37.63,11.3283a17.8621,17.8621,0,0,0-30.48,12.63,18.0666,18.0666,0,0,0,2.4008,8.977L7.046,42.1215l9.4989-2.5052a17.4133,17.4133,0,0,0,8.56,2.192h0a17.789,17.789,0,0,0,12.526-30.48ZM25,38.7812h0a14.2828,14.2828,0,0,1-7.5156-2.0877l-.5219-.3131-5.6368,1.4614,1.4614-5.428-.3131-.5219a15.2443,15.2443,0,0,1-2.2965-7.9332A14.8752,14.8752,0,1,1,25,38.7812Zm8.1419-11.0646c-.4175-.2088-2.61-1.2527-3.0271-1.4614a.7141.7141,0,0,0-1.0438.2087c-.3132.4176-1.1483,1.4614-1.4614,1.7746-.2088.3131-.5219.3131-.9395.1044a12.96,12.96,0,0,1-3.549-2.1921,12.1572,12.1572,0,0,1-2.5052-3.1315c-.3132-.5219,0-.7307.2088-.94a5.7956,5.7956,0,0,0,.6263-.835,2.62,2.62,0,0,0,.4175-.7307.8826.8826,0,0,0,0-.7307c-.1044-.2088-1.0438-2.4008-1.357-3.34-.3131-.8351-.7307-.7307-1.0438-.7307h-.8351a1.6,1.6,0,0,0-1.1482.5219,5.0206,5.0206,0,0,0-1.5658,3.7579,8.85,8.85,0,0,0,1.7745,4.5928c.2088.3132,3.1316,4.8017,7.62,6.785q1.5657.6263,2.5052.9394a6.7871,6.7871,0,0,0,2.8183.2088,4.6438,4.6438,0,0,0,3.0271-2.0877,4.078,4.078,0,0,0,.2088-2.0876C33.8726,28.03,33.56,27.9253,33.1419,27.7166Z" fill="#fff" fill-rule="evenodd"/>
      </g>
    </g>
  </symbol>

  <symbol id="ig" viewBox="0 0 50 50">
    <g>
      <path d="M45,0H5A4.9515,4.9515,0,0,0,0,4.9025V45a4.9515,4.9515,0,0,0,4.9023,5H45a4.9515,4.9515,0,0,0,5-4.9022V5a4.9515,4.9515,0,0,0-4.9023-5H45Z" fill="#4f007d"/>
      <path d="M25,6.5377c-5.0209,0-5.6485,0-7.636.1046a14.9677,14.9677,0,0,0-4.4979.8368,7.2465,7.2465,0,0,0-3.2427,2.092,12.6912,12.6912,0,0,0-2.1966,3.2427A14.9677,14.9677,0,0,0,6.59,17.3117c-.1046,1.9875-.1046,2.6151-.1046,7.636s0,5.6485.1046,7.636a14.9677,14.9677,0,0,0,.8368,4.4979,8.51,8.51,0,0,0,2.1966,3.2427,12.6912,12.6912,0,0,0,3.2427,2.1966,14.9677,14.9677,0,0,0,4.4979.8368c1.9875.1046,2.6151.1046,7.636.1046s5.6485,0,7.636-.1046a14.9677,14.9677,0,0,0,4.4979-.8368,8.51,8.51,0,0,0,3.2427-2.1966,10.4774,10.4774,0,0,0,2.1966-3.2427,14.9677,14.9677,0,0,0,.8368-4.4979c.1046-1.9875.1046-2.6151.1046-7.636s0-5.6485-.1046-7.636a14.9677,14.9677,0,0,0-.8368-4.4979,8.511,8.511,0,0,0-2.1966-3.2427,10.4774,10.4774,0,0,0-3.2427-2.1966,14.9677,14.9677,0,0,0-4.4979-.8368ZM23.3264,9.8849H25c4.9163,0,5.5439,0,7.5314.1046a12.6013,12.6013,0,0,1,3.4519.6277,6.0127,6.0127,0,0,1,3.4519,3.4518,12.6032,12.6032,0,0,1,.6276,3.4519c.1046,1.9875.1046,2.5105.1046,7.5314s0,5.5439-.1046,7.5314a12.6024,12.6024,0,0,1-.6276,3.4519,6.0132,6.0132,0,0,1-3.4519,3.4519,12.6024,12.6024,0,0,1-3.4519.6276c-1.9875.1046-2.51.1046-7.5314.1046s-5.5439,0-7.5314-.1046a12.6032,12.6032,0,0,1-3.4519-.6276,6.971,6.971,0,0,1-2.1966-1.36,5.5735,5.5735,0,0,1-1.36-2.092,12.5973,12.5973,0,0,1-.6277-3.4519c-.1046-1.9875-.1046-2.5105-.1046-7.5314s0-5.5439.1046-7.5314A12.5982,12.5982,0,0,1,10.46,14.069a6.0122,6.0122,0,0,1,3.4518-3.4518A12.6021,12.6021,0,0,1,17.364,9.99c1.8829-.1046,2.5105-.1046,5.9624-.1046Zm11.6108,3.0335a2.1967,2.1967,0,0,0,0,4.3933,2.282,2.282,0,0,0,2.1967-2.1966,2.282,2.282,0,0,0-2.1967-2.1967ZM25,15.5335a9.5188,9.5188,0,1,0,9.5188,9.5188A9.5536,9.5536,0,0,0,25,15.5335Zm0,3.3473a6.1716,6.1716,0,1,1-6.1715,6.1715A6.1168,6.1168,0,0,1,25,18.8808Z" fill="#fff"/>
    </g>
  </symbol>

  <symbol id="email" viewBox="0 0 50 50">
    <g>
      <path d="M45,0H5A4.9515,4.9515,0,0,0,0,4.9025V45a4.9515,4.9515,0,0,0,4.9023,5H45a4.9515,4.9515,0,0,0,5-4.9022V5a4.9515,4.9515,0,0,0-4.9023-5H45Z" fill="#4f007d"/>
      <path d="M41.9425,11.6575A3.4669,3.4669,0,0,0,39.4,10.6H10.6A3.6106,3.6106,0,0,0,7,14.2V35.8a3.6106,3.6106,0,0,0,3.6,3.6H39.4A3.6106,3.6106,0,0,0,43,35.8V14.2A3.4669,3.4669,0,0,0,41.9425,11.6575ZM39.4,35.8H10.6v-18l14.4,9,14.4-9ZM25,23.2l-14.4-9H39.4Z" fill="#fff"/>
    </g>
  </symbol>

  <symbol id="wa-white" data-name="Layer 1" viewBox="0 0 50 50">
    <g>
      <path d="M25,9.1362A14.88,14.88,0,0,0,10.1775,23.9587a15.2452,15.2452,0,0,0,2.2964,7.9332l.3132.5219-1.4614,5.4279L16.9625,36.38l.5219.3131A14.283,14.283,0,0,0,25,38.7812a14.8225,14.8225,0,1,0,0-29.645Zm8.6638,21.2943a4.6438,4.6438,0,0,1-3.0271,2.0877,6.7871,6.7871,0,0,1-2.8183-.2088q-.9395-.3132-2.5052-.9394c-4.4886-1.9833-7.4113-6.4718-7.62-6.785a8.85,8.85,0,0,1-1.7745-4.5929,5.02,5.02,0,0,1,1.5658-3.7578,1.6,1.6,0,0,1,1.1482-.5219h.8351c.3131,0,.7307-.1044,1.0438.7307.3131.9395,1.2526,3.1315,1.357,3.34a.8831.8831,0,0,1,0,.7306,2.6168,2.6168,0,0,1-.4176.7308,5.7864,5.7864,0,0,1-.6263.835c-.2087.2088-.5219.4176-.2087.94a12.1572,12.1572,0,0,0,2.5052,3.1315,12.9561,12.9561,0,0,0,3.549,2.192c.4175.2088.7307.2088.9395-.1043.3131-.3132,1.1482-1.357,1.4614-1.7746a.7141.7141,0,0,1,1.0438-.2087c.4175.2087,2.61,1.2526,3.0271,1.4614s.7307.3131.7307.6262A4.0784,4.0784,0,0,1,33.6638,30.4305Z" fill="#fff"/>
      <path d="M45.0975,0H5A4.9514,4.9514,0,0,0,0,4.9025V45a4.9515,4.9515,0,0,0,4.9023,5H45a4.9515,4.9515,0,0,0,5-4.9022V5A4.9514,4.9514,0,0,0,45.0975,0ZM25.1044,41.8083a17.4143,17.4143,0,0,1-8.5595-2.192L7.046,42.1215l2.5052-9.1858A17.8779,17.8779,0,0,1,25,6.1091a17.85,17.85,0,1,1,.1044,35.6992Z" fill="#fff"/>
    </g>
  </symbol>

  <symbol id="ig-white" viewBox="0 0 50 50">
    <g>
      <circle cx="25" cy="25.0523" r="6.1716" transform="translate(-5.087 6.414) rotate(-13.2825)" fill="#fff"/>
      <path d="M39.4351,14.069a6.0125,6.0125,0,0,0-3.4519-3.4519A12.6045,12.6045,0,0,0,32.5314,9.99c-1.9875-.1046-2.615-.1046-7.5314-.1046H23.3264c-3.4519,0-4.0795,0-5.9624.1046a12.6072,12.6072,0,0,0-3.4519.6276A6.0132,6.0132,0,0,0,10.46,14.069a12.6072,12.6072,0,0,0-.6276,3.4519c-.1045,1.9875-.1045,2.5105-.1045,7.5314s0,5.544.1045,7.5314a12.6063,12.6063,0,0,0,.6276,3.4519,5.5749,5.5749,0,0,0,1.36,2.092,6.9681,6.9681,0,0,0,2.1967,1.36,12.6,12.6,0,0,0,3.4518.6277c1.9875.1046,2.5105.1046,7.5314.1046s5.5439,0,7.5314-.1046a12.5994,12.5994,0,0,0,3.4518-.6277,6.012,6.012,0,0,0,3.4519-3.4518,12.5973,12.5973,0,0,0,.6277-3.4519c.1046-1.9875.1046-2.5105.1046-7.5314s0-5.5439-.1046-7.5314A12.5982,12.5982,0,0,0,39.4351,14.069ZM25,34.5711a9.5189,9.5189,0,1,1,9.5188-9.5188A9.5536,9.5536,0,0,1,25,34.5711Zm9.9372-17.2594a2.1967,2.1967,0,0,1,0-4.3933,2.282,2.282,0,0,1,2.1967,2.1967A2.282,2.282,0,0,1,34.9372,17.3117Z" fill="#fff"/>
      <path d="M45.0975,0H5A4.9514,4.9514,0,0,0,0,4.9025V45a4.9514,4.9514,0,0,0,4.9022,5H45a4.9513,4.9513,0,0,0,5-4.9022V5A4.9513,4.9513,0,0,0,45.0975,0ZM43.41,32.5837a14.97,14.97,0,0,1-.8369,4.4979,10.4762,10.4762,0,0,1-2.1966,3.2427,8.511,8.511,0,0,1-3.2427,2.1966,14.9684,14.9684,0,0,1-4.4979.8368c-1.9875.1046-2.6151.1046-7.636.1046s-5.6485,0-7.636-.1046a14.9684,14.9684,0,0,1-4.4979-.8368,12.6912,12.6912,0,0,1-3.2427-2.1966,8.511,8.511,0,0,1-2.1966-3.2427A14.9673,14.9673,0,0,1,6.59,32.5837c-.1045-1.9874-.1045-2.6151-.1045-7.636s0-5.6486.1045-7.636a14.9673,14.9673,0,0,1,.8369-4.4979A12.6877,12.6877,0,0,1,9.6234,9.5711a7.246,7.246,0,0,1,3.2427-2.092,14.9652,14.9652,0,0,1,4.4979-.8368c1.9875-.1046,2.6151-.1046,7.636-.1046h7.636a14.9684,14.9684,0,0,1,4.4979.8368,10.4774,10.4774,0,0,1,3.2427,2.1966,8.51,8.51,0,0,1,2.1966,3.2427,14.97,14.97,0,0,1,.8369,4.4979c.1045,1.9874.1045,2.6151.1045,7.636S43.5146,30.5963,43.41,32.5837Z" fill="#fff"/>
    </g>
  </symbol>
</svg>
